<svg xmlns="http://www.w3.org/2000/svg"  viewBox="0 0 16 16" width="48px" height="48px"><path d="M 3.5 2 C 2.68 2 2 2.68 2 3.5 L 2 12.5 C 2 13.32 2.68 14 3.5 14 L 12.5 14 C 13.32 14 14 13.32 14 12.5 L 14 3.5 C 14 2.68 13.32 2 12.5 2 L 3.5 2 z M 3.5 3 L 12.5 3 C 12.78 3 13 3.22 13 3.5 L 13 12.5 C 13 12.78 12.78 13 12.5 13 L 3.5 13 C 3.22 13 3 12.78 3 12.5 L 3 3.5 C 3 3.22 3.22 3 3.5 3 z M 10.363281 4.2363281 C 10.189375 4.2171094 10.005391 4.2969531 9.9003906 4.4394531 C 9.8603906 4.4894531 9.8192969 4.5496094 9.7792969 4.5996094 C 9.7392969 4.6596094 9.669375 4.6703906 9.609375 4.6503906 C 7.469375 3.6903906 6.2496094 5.7201563 5.8496094 6.6601562 C 5.0196094 8.6101562 5.0201562 11.669922 7.4101562 11.669922 C 9.4201562 11.669922 10.369922 10.35 10.919922 9.5 C 11.049922 9.3 11.000781 9.0403906 10.800781 8.9003906 L 10.800781 8.9101562 C 10.600781 8.7701562 10.329453 8.8195313 10.189453 9.0195312 C 9.5994531 9.8395313 8.7395312 10.570312 7.5195312 10.570312 C 6.2995312 10.570312 6.2309375 8.3792187 6.9609375 6.9492188 C 7.4109375 6.0792187 8.0398438 5.359375 8.5898438 5.359375 C 8.9798438 5.359375 9.1998437 5.7100781 9.0898438 6.0800781 C 8.9598437 6.5300781 8.9492188 6.839375 8.9492188 6.859375 C 8.9392188 7.129375 9.1499219 7.349375 9.4199219 7.359375 L 9.4394531 7.359375 C 9.6994531 7.359375 9.9099219 7.150625 9.9199219 6.890625 C 9.9199219 6.890625 9.9694531 5.9697656 10.689453 5.0097656 C 10.869453 4.7797656 10.799297 4.4290625 10.529297 4.2890625 C 10.476797 4.2590625 10.42125 4.2427344 10.363281 4.2363281 z"/></svg>